<?xml version="1.0" encoding="UTF-8" standalone="no"?>
<!DOCTYPE svg PUBLIC "-//W3C//DTD SVG 1.1//EN" "http://www.w3.org/Graphics/SVG/1.1/DTD/svg11.dtd">
<svg width="100%" height="100%" viewBox="0 0 200 200" version="1.1" xmlns="http://www.w3.org/2000/svg" xmlns:xlink="http://www.w3.org/1999/xlink" xml:space="preserve" xmlns:serif="http://www.serif.com/" style="fill-rule:evenodd;clip-rule:evenodd;stroke-miterlimit:10;">
    <g id="Layer_2">
        <path d="M186,200L14,200C6.27,200 0,193.73 0,186L0,14C0,6.27 6.27,0 14,0L186,0C193.73,0 200,6.27 200,14L200,186C200,193.73 193.73,200 186,200Z" style="fill:white;fill-rule:nonzero;"/>
        <path d="M184.81,194.67L15.1,194.67C9.5,194.67 4.96,190.13 4.96,184.53L4.96,112.82C4.96,107.22 9.5,102.68 15.1,102.68L184.81,102.68C190.41,102.68 194.95,107.22 194.95,112.82L194.95,184.53C194.95,190.13 190.41,194.67 184.81,194.67Z" style="fill-rule:nonzero;"/>
    </g>
    <g id="Layer_1">
        <g>
            <rect x="24.98" y="25.9" width="159.49" height="55.62" style="fill:none;"/>
            <path d="M26,31.45L26,27.02L50.79,27.02L50.79,31.45L40.7,31.45L40.7,72.27L36.09,72.27L36.09,31.45L26,31.45Z" style="fill-rule:nonzero;stroke:black;stroke-width:1.5px;"/>
            <path d="M86.61,61.17L90.24,63.08C89.05,65.42 87.67,67.31 86.11,68.74C84.55,70.18 82.8,71.27 80.84,72.02C78.89,72.77 76.68,73.14 74.22,73.14C68.76,73.14 64.49,71.35 61.41,67.77C58.33,64.19 56.79,60.15 56.79,55.63C56.79,51.38 58.09,47.6 60.7,44.28C64,40.06 68.43,37.94 73.97,37.94C79.68,37.94 84.23,40.1 87.64,44.43C90.06,47.49 91.29,51.3 91.33,55.87L61.23,55.87C61.31,59.76 62.55,62.94 64.96,65.43C67.37,67.92 70.33,69.16 73.86,69.16C75.56,69.16 77.22,68.86 78.83,68.27C80.44,67.68 81.81,66.89 82.94,65.91C84.08,64.94 85.3,63.35 86.61,61.17ZM86.61,52.15C86.04,49.85 85.2,48.02 84.1,46.64C83,45.27 81.55,44.16 79.74,43.32C77.93,42.48 76.03,42.06 74.04,42.06C70.75,42.06 67.93,43.12 65.57,45.23C63.84,46.77 62.54,49.08 61.66,52.15L86.61,52.15Z" style="fill-rule:nonzero;stroke:black;stroke-width:1.5px;"/>
            <path d="M133.69,45.76L130.27,47.88C127.33,43.96 123.3,42 118.2,42C114.12,42 110.74,43.31 108.05,45.93C105.36,48.55 104.01,51.74 104.01,55.49C104.01,57.93 104.63,60.22 105.87,62.37C107.11,64.52 108.81,66.19 110.97,67.38C113.13,68.57 115.55,69.16 118.24,69.16C123.16,69.16 127.17,67.2 130.28,63.28L133.7,65.53C132.1,67.94 129.95,69.81 127.26,71.14C124.56,72.47 121.49,73.13 118.05,73.13C112.76,73.13 108.37,71.45 104.88,68.09C101.39,64.73 99.65,60.64 99.65,55.82C99.65,52.58 100.46,49.57 102.1,46.79C103.73,44.01 105.97,41.84 108.82,40.28C111.67,38.72 114.86,37.94 118.39,37.94C120.6,37.94 122.74,38.28 124.8,38.96C126.86,39.64 128.61,40.52 130.04,41.61C131.46,42.69 132.68,44.07 133.69,45.76Z" style="fill-rule:nonzero;stroke:black;stroke-width:1.5px;"/>
            <path d="M143.77,25.88L148.1,25.88L148.1,44.8C149.84,42.5 151.76,40.79 153.85,39.65C155.94,38.51 158.21,37.94 160.65,37.94C163.15,37.94 165.37,38.58 167.31,39.85C169.25,41.12 170.68,42.83 171.6,44.97C172.52,47.11 172.98,50.47 172.98,55.04L172.98,72.27L168.67,72.27L168.67,56.31C168.67,52.45 168.52,49.88 168.21,48.59C167.68,46.38 166.71,44.71 165.3,43.59C163.9,42.47 162.05,41.91 159.78,41.91C157.18,41.91 154.84,42.77 152.78,44.49C150.72,46.21 149.36,48.35 148.7,50.89C148.29,52.53 148.08,55.57 148.08,60L148.08,72.27L143.77,72.27L143.77,25.88Z" style="fill-rule:nonzero;stroke:black;stroke-width:1.5px;"/>
        </g>
        <g>
            <rect x="13.52" y="124.83" width="170.6" height="60.89" style="fill:none;"/>
            <path d="M61.17,134.34L57.6,137.08C55.63,134.52 53.27,132.57 50.51,131.25C47.75,129.93 44.72,129.27 41.42,129.27C37.81,129.27 34.47,130.14 31.39,131.87C28.31,133.6 25.93,135.93 24.24,138.85C22.55,141.77 21.7,145.06 21.7,148.71C21.7,154.23 23.59,158.83 27.38,162.52C31.16,166.21 35.94,168.06 41.7,168.06C48.04,168.06 53.34,165.58 57.6,160.62L61.17,163.33C58.91,166.2 56.1,168.42 52.73,169.99C49.36,171.56 45.59,172.34 41.42,172.34C33.5,172.34 27.26,169.7 22.69,164.43C18.86,159.98 16.94,154.61 16.94,148.31C16.94,141.69 19.26,136.11 23.91,131.59C28.56,127.07 34.37,124.81 41.37,124.81C45.59,124.81 49.41,125.65 52.81,127.32C56.21,128.98 59,131.33 61.17,134.34Z" style="fill:white;fill-rule:nonzero;stroke:white;stroke-width:1.5px;"/>
            <path d="M69.65,137.72L74.07,137.72L74.07,142.61C75.38,140.68 76.77,139.24 78.22,138.29C79.68,137.34 81.19,136.86 82.77,136.86C83.96,136.86 85.23,137.24 86.58,138L84.33,141.63C83.43,141.24 82.67,141.05 82.05,141.05C80.61,141.05 79.23,141.64 77.9,142.82C76.57,144 75.55,145.83 74.85,148.31C74.32,150.22 74.05,154.07 74.05,159.88L74.05,171.2L69.65,171.2L69.65,137.72Z" style="fill:white;fill-rule:nonzero;stroke:white;stroke-width:1.5px;"/>
            <path d="M120.2,160.09L123.83,162C122.64,164.34 121.26,166.22 119.7,167.66C118.14,169.1 116.39,170.19 114.44,170.94C112.49,171.69 110.28,172.06 107.82,172.06C102.36,172.06 98.09,170.27 95.01,166.69C91.93,163.11 90.39,159.07 90.39,154.56C90.39,150.31 91.69,146.53 94.3,143.21C97.6,138.99 102.03,136.87 107.57,136.87C113.28,136.87 117.83,139.03 121.24,143.36C123.66,146.42 124.89,150.23 124.93,154.8L94.82,154.8C94.9,158.69 96.14,161.87 98.55,164.36C100.95,166.85 103.92,168.09 107.45,168.09C109.15,168.09 110.81,167.79 112.42,167.2C114.03,166.61 115.4,165.82 116.53,164.84C117.66,163.86 118.88,162.27 120.2,160.09ZM120.2,151.07C119.63,148.77 118.79,146.94 117.69,145.56C116.59,144.19 115.14,143.08 113.33,142.24C111.52,141.4 109.62,140.98 107.63,140.98C104.34,140.98 101.52,142.04 99.16,144.15C97.43,145.69 96.13,147.99 95.25,151.07L120.2,151.07Z" style="fill:white;fill-rule:nonzero;stroke:white;stroke-width:1.5px;"/>
            <path d="M130.2,137.72L134.63,137.72L144.89,162.02L155.57,137.72L156.35,137.72L167.1,162.02L177.56,137.72L182.04,137.72L167.5,171.19L166.7,171.19L156,147.23L145.3,171.19L144.5,171.19L130.2,137.72Z" style="fill:white;fill-rule:nonzero;stroke:white;stroke-width:1.5px;"/>
        </g>
    </g>
</svg>
