<?xml version="1.0" encoding="utf-8"?>
<!-- Generator: Adobe Illustrator 27.6.1, SVG Export Plug-In . SVG Version: 6.00 Build 0)  -->
<svg version="1.1" xmlns="http://www.w3.org/2000/svg" xmlns:xlink="http://www.w3.org/1999/xlink" x="0px" y="0px"
     viewBox="0 0 200 200" style="enable-background:new 0 0 200 200;" xml:space="preserve">
<style type="text/css">
	.st0{fill:#FFFFFF;}
	.st1{fill:none;}
	.st2{fill:#FFFFFF;stroke:#FFFFFF;stroke-width:1.5;stroke-miterlimit:10;}
	.st3{stroke:#000000;stroke-width:1.5;stroke-miterlimit:10;}
</style>
    <g id="Layer_2">
	<path d="M186,200H14c-7.73,0-14-6.27-14-14V14C0,6.27,6.27,0,14,0h172c7.73,0,14,6.27,14,14v172C200,193.73,193.73,200,186,200z"/>
        <path class="st0" d="M184.81,194.67H15.1c-5.6,0-10.14-4.54-10.14-10.14v-71.71c0-5.6,4.54-10.14,10.14-10.14h169.71
		c5.6,0,10.14,4.54,10.14,10.14v71.71C194.95,190.13,190.41,194.67,184.81,194.67z"/>
</g>
    <g id="Layer_1">
	<g>
		<rect x="24.98" y="25.9" class="st1" width="159.49" height="55.62"/>
        <path class="st2" d="M26,31.45v-4.43h24.79v4.43H40.7v40.82h-4.61V31.45H26z"/>
        <path class="st2" d="M86.61,61.17l3.63,1.91c-1.19,2.34-2.57,4.23-4.13,5.66c-1.56,1.44-3.31,2.53-5.27,3.28
			c-1.95,0.75-4.16,1.12-6.62,1.12c-5.46,0-9.73-1.79-12.81-5.37c-3.08-3.58-4.62-7.62-4.62-12.14c0-4.25,1.3-8.03,3.91-11.35
			c3.3-4.22,7.73-6.34,13.27-6.34c5.71,0,10.26,2.16,13.67,6.49c2.42,3.06,3.65,6.87,3.69,11.44H61.23
			c0.08,3.89,1.32,7.07,3.73,9.56s5.37,3.73,8.9,3.73c1.7,0,3.36-0.3,4.97-0.89c1.61-0.59,2.98-1.38,4.11-2.36
			C84.08,64.94,85.3,63.35,86.61,61.17z M86.61,52.15c-0.57-2.3-1.41-4.13-2.51-5.51c-1.1-1.37-2.55-2.48-4.36-3.32
			c-1.81-0.84-3.71-1.26-5.7-1.26c-3.29,0-6.11,1.06-8.47,3.17c-1.73,1.54-3.03,3.85-3.91,6.92H86.61z"/>
        <path class="st2" d="M133.69,45.76l-3.42,2.12C127.33,43.96,123.3,42,118.2,42c-4.08,0-7.46,1.31-10.15,3.93
			c-2.69,2.62-4.04,5.81-4.04,9.56c0,2.44,0.62,4.73,1.86,6.88c1.24,2.15,2.94,3.82,5.1,5.01s4.58,1.78,7.27,1.78
			c4.92,0,8.93-1.96,12.04-5.88l3.42,2.25c-1.6,2.41-3.75,4.28-6.44,5.61c-2.7,1.33-5.77,1.99-9.21,1.99
			c-5.29,0-9.68-1.68-13.17-5.04c-3.49-3.36-5.23-7.45-5.23-12.27c0-3.24,0.81-6.25,2.45-9.03c1.63-2.78,3.87-4.95,6.72-6.51
			c2.85-1.56,6.04-2.34,9.57-2.34c2.21,0,4.35,0.34,6.41,1.02c2.06,0.68,3.81,1.56,5.24,2.65
			C131.46,42.69,132.68,44.07,133.69,45.76z"/>
        <path class="st2" d="M143.79,25.88h4.31V44.8c1.74-2.3,3.66-4.01,5.75-5.15c2.09-1.14,4.36-1.71,6.8-1.71
			c2.5,0,4.72,0.64,6.66,1.91c1.94,1.27,3.37,2.98,4.29,5.12s1.38,5.5,1.38,10.07v17.23h-4.31V56.31c0-3.86-0.15-6.43-0.46-7.72
			c-0.53-2.21-1.5-3.88-2.91-5c-1.4-1.12-3.25-1.68-5.52-1.68c-2.6,0-4.94,0.86-7,2.58c-2.06,1.72-3.42,3.86-4.08,6.4
			c-0.41,1.64-0.62,4.68-0.62,9.11v12.27h-4.31V25.88z"/>
	</g>
        <g>
		<rect x="13.52" y="124.83" class="st1" width="170.6" height="60.89"/>
            <path class="st3" d="M61.17,134.34l-3.57,2.74c-1.97-2.56-4.33-4.51-7.09-5.83c-2.76-1.32-5.79-1.98-9.09-1.98
			c-3.61,0-6.95,0.87-10.03,2.6c-3.08,1.73-5.46,4.06-7.15,6.98c-1.69,2.92-2.54,6.21-2.54,9.86c0,5.52,1.89,10.12,5.68,13.81
			c3.78,3.69,8.56,5.54,14.32,5.54c6.34,0,11.64-2.48,15.9-7.44l3.57,2.71c-2.26,2.87-5.07,5.09-8.44,6.66
			c-3.37,1.57-7.14,2.35-11.31,2.35c-7.92,0-14.16-2.64-18.73-7.91c-3.83-4.45-5.75-9.82-5.75-16.12c0-6.62,2.32-12.2,6.97-16.72
			c4.65-4.52,10.46-6.78,17.46-6.78c4.22,0,8.04,0.84,11.44,2.51C56.21,128.98,59,131.33,61.17,134.34z"/>
            <path class="st3" d="M69.67,137.72h4.4v4.89c1.31-1.93,2.7-3.37,4.15-4.32c1.46-0.95,2.97-1.43,4.55-1.43
			c1.19,0,2.46,0.38,3.81,1.14l-2.25,3.63c-0.9-0.39-1.66-0.58-2.28-0.58c-1.44,0-2.82,0.59-4.15,1.77
			c-1.33,1.18-2.35,3.01-3.05,5.49c-0.53,1.91-0.8,5.76-0.8,11.57v11.32h-4.4V137.72z"/>
            <path class="st3" d="M120.2,160.09l3.63,1.91c-1.19,2.34-2.57,4.22-4.13,5.66c-1.56,1.44-3.31,2.53-5.26,3.28
			c-1.95,0.75-4.16,1.12-6.62,1.12c-5.46,0-9.73-1.79-12.81-5.37c-3.08-3.58-4.62-7.62-4.62-12.13c0-4.25,1.3-8.03,3.91-11.35
			c3.3-4.22,7.73-6.34,13.27-6.34c5.71,0,10.26,2.16,13.67,6.49c2.42,3.06,3.65,6.87,3.69,11.44H94.82
			c0.08,3.89,1.32,7.07,3.73,9.56c2.4,2.49,5.37,3.73,8.9,3.73c1.7,0,3.36-0.3,4.97-0.89c1.61-0.59,2.98-1.38,4.11-2.36
			C117.66,163.86,118.88,162.27,120.2,160.09z M120.2,151.07c-0.57-2.3-1.41-4.13-2.51-5.51c-1.1-1.37-2.55-2.48-4.36-3.32
			c-1.81-0.84-3.71-1.26-5.7-1.26c-3.29,0-6.11,1.06-8.47,3.17c-1.73,1.54-3.03,3.84-3.91,6.92H120.2z"/>
            <path class="st3" d="M130.2,137.72h4.43l10.26,24.3l10.68-24.3h0.78l10.75,24.3l10.46-24.3h4.48l-14.54,33.47h-0.8L156,147.23
			l-10.7,23.96h-0.8L130.2,137.72z"/>
	</g>
</g>
</svg>
